<?xml version="1.0" encoding="utf-8"?>
<!-- Uploaded to: SVG Repo, www.svgrepo.com, Generator: SVG Repo Mixer Tools -->
<svg fill="#000000" height="800px" width="800px" version="1.1" id="Layer_1" xmlns="http://www.w3.org/2000/svg" xmlns:xlink="http://www.w3.org/1999/xlink" 
	 viewBox="0 0 64 64" enable-background="new 0 0 64 64" xml:space="preserve">
<g id="Pyramid-triangle">
	<path d="M62.8857422,62.5139732l-7.3379097-14c-0.172802-0.3300972-0.5136032-0.5361977-0.8857002-0.5361977H9.3379316
		c-0.3720999,0-0.7128992,0.2061005-0.8857994,0.5361977l-7.3379002,14c-0.1621,0.3095016-0.1513001,0.6816025,0.0302999,0.9814034
		c0.1807001,0.2997971,0.5059,0.482399,0.8555,0.482399h60c0.3496017,0,0.6748009-0.1826019,0.8554001-0.482399
		C63.0371323,63.1955757,63.0478325,62.8234749,62.8857422,62.5139732z M3.6533322,61.9777756l6.2891002-12h44.1152l6.2891121,12
		H3.6533322z"/>
	<path d="M12.0000324,43.9777756h40c0.347599,0,0.6709023-0.1805992,0.8525009-0.4775009
		c0.1816978-0.2968979,0.1963005-0.6660004,0.0391006-0.9766006l-6.1104012-11.9999981
		c-0.1708984-0.3349018-0.5155983-0.5459003-0.8916016-0.5459003H18.1103325c-0.3760014,0-0.7207012,0.2109985-0.8915882,0.5459003
		L11.1084318,42.523674c-0.1573,0.3106003-0.1426001,0.6797028,0.0390005,0.9766006
		C11.3291321,43.7971764,11.6523323,43.9777756,12.0000324,43.9777756z M18.7236309,31.9777756h26.552702l5.0917969,10H13.6318321
		L18.7236309,31.9777756z"/>
	<path d="M20.0000324,25.9797745h23.9999981c0.346714,0,0.6679001-0.1796989,0.8506012-0.4745998
		c0.1825981-0.2950001,0.1991997-0.6620998,0.0438995-0.9727001l-12-24.0018997c-0.3397865-0.6778-1.4491997-0.6778-1.7891006,0
		L19.1054325,24.5324745c-0.155201,0.3106003-0.1386013,0.6777,0.0439987,0.9727001
		C19.3320312,25.8000755,19.6533318,25.9797745,20.0000324,25.9797745z M32.0000305,3.2140751l10.3818016,20.7656994H21.6181316
		L32.0000305,3.2140751z"/>
</g>
</svg>